<svg xmlns="http://www.w3.org/2000/svg" width="18" height="18" viewBox="0 0 18 18" fill="none">
<g clip-path="url(#clip0_13_1317)">
<path d="M6.75 9.75C8.40686 9.75 9.75 8.40685 9.75 6.75C9.75 5.09315 8.40686 3.75 6.75 3.75C5.09315 3.75 3.75 5.09315 3.75 6.75C3.75 8.40685 5.09315 9.75 6.75 9.75Z" fill="#4A5662"/>
<path d="M6.75 11.25C4.7475 11.25 0.75 12.255 0.75 14.25V15C0.75 15.4125 1.0875 15.75 1.5 15.75H12C12.4125 15.75 12.75 15.4125 12.75 15V14.25C12.75 12.255 8.7525 11.25 6.75 11.25ZM11.6025 5.8275C11.8425 6.42 11.8425 7.08 11.6025 7.67249C11.46 8.025 11.52 8.4225 11.79 8.6925L11.8125 8.715C12.2475 9.15 12.99 9.06 13.275 8.5125C13.845 7.425 13.845 6.15 13.26 5.0175C12.975 4.4625 12.225 4.3575 11.7825 4.8L11.775 4.8075C11.52 5.07 11.46 5.475 11.6025 5.8275ZM14.385 2.1675C14.085 2.4675 14.04 2.9325 14.2875 3.2775C15.765 5.3325 15.7575 8.085 14.265 10.215C14.025 10.5525 14.0775 11.0175 14.37 11.31L14.3925 11.3325C14.76 11.7 15.3825 11.67 15.6975 11.2575C17.76 8.6025 17.7675 4.98 15.6975 2.2425C15.3825 1.83 14.7525 1.8 14.385 2.1675Z" fill="#4A5662"/>
</g>
<defs>
<clipPath id="clip0_13_1317">
<rect width="18" height="18" fill="white"/>
</clipPath>
</defs>
</svg>